<?xml version="1.0" encoding="UTF-8"?>
<!-- <img src="images/f-app.svg" > -->
<svg width="120px" height="40px" viewBox="0 0 120 40" version="1.1" xmlns="http://www.w3.org/2000/svg" xmlns:xlink="http://www.w3.org/1999/xlink">
    <title>D4BD5D8B-979B-4B04-A671-E7A662589F4D</title>
    <g id="Page-1" stroke="none" stroke-width="1" fill="none" fill-rule="evenodd">
        <g id="Content-Page-Dev" transform="translate(-1334.000000, -7534.000000)">
            <g id="footer" transform="translate(0.000000, 7334.000000)">
                <g id="Group-14" transform="translate(1334.000000, 200.000000)">
                    <g id="Group" transform="translate(0.000000, 1.000000)" fill="#FFFFFF">
                        <path
                            d="M29.1157785,19.4770703 C29.0927384,16.9792023 31.1599943,15.7644312 31.2545383,15.7080227 C30.0842585,14.0006695 28.2696496,13.7670902 27.6316763,13.7496115 C26.1078497,13.5891251 24.6301034,14.6608884 23.8530948,14.6608884 C23.060991,14.6608884 21.8652877,13.7655013 20.5774238,13.7917193 C18.9193289,13.8171429 17.3684897,14.7776781 16.5175938,16.2681362 C14.761777,19.30705 16.071092,23.7744519 17.7530215,26.2310066 C18.5943836,27.4346548 19.5771643,28.7781328 20.8642337,28.7296691 C22.1227015,28.6780274 22.5938325,27.9280314 24.1128922,27.9280314 C25.61924,27.9280314 26.0601805,28.7296691 27.3734679,28.6994785 C28.7240963,28.6780274 29.5749922,27.4918579 30.3869582,26.2770868 C31.3594106,24.8978569 31.7495038,23.5392837 31.7653936,23.4693688 C31.7336141,23.459835 29.1412021,22.4706983 29.1157785,19.4770703"
                            id="Fill-4"></path>
                        <path
                            d="M26.6361043,12.133545 C27.3130074,11.2866215 27.7761935,10.134615 27.6474866,8.96512972 C26.6670893,9.00803203 25.4411954,9.64282736 24.7356907,10.4714776 C24.1112237,11.2016114 23.5534937,12.3981092 23.6980904,13.5231032 C24.7984552,13.6049354 25.9290106,12.9677566 26.6361043,12.133545"
                            id="Fill-6"></path>
                        <path
                            d="M42.9006094,24.4535002 L44.515802,19.6992884 L44.5610878,19.6992884 L46.1754859,24.4535002 L42.9006094,24.4535002 Z M43.6442495,17.8958023 L39.7306052,28.7357866 L41.4800661,28.7357866 L42.4723807,25.8057175 L46.6045091,25.8057175 L47.5952347,28.7357866 L49.3748862,28.7357866 L45.4620364,17.8958023 L43.6442495,17.8958023 Z"
                            id="Fill-8"></path>
                        <path
                            d="M54.0714977,27.4429175 C52.8320975,27.4429175 51.9986804,26.3767155 51.9986804,24.7837686 C51.9986804,23.2067113 52.8320975,22.13177 54.0714977,22.13177 C55.3331435,22.13177 56.1602047,23.1844657 56.1602047,24.7837686 C56.1602047,26.3989612 55.3331435,27.4429175 54.0714977,27.4429175 M54.4997263,20.7493622 C53.395389,20.7493622 52.4340594,21.2991474 51.9827906,22.1468653 L51.9533946,22.1468653 L51.9533946,20.8327834 L50.3826933,20.8327834 L50.3826933,31.3502059 L52.0050363,31.3502059 L52.0050363,27.4349726 L52.0423772,27.4349726 C52.5087412,28.31447 53.4033339,28.8173804 54.5291224,28.8173804 C56.5129571,28.8173804 57.8278335,27.2403232 57.8278335,24.7837686 C57.8278335,22.3351588 56.5050122,20.7493622 54.4997263,20.7493622"
                            id="Fill-10"></path>
                        <path
                            d="M62.7697827,27.4429175 C61.5303825,27.4429175 60.6969654,26.3767155 60.6969654,24.7837686 C60.6969654,23.2067113 61.5303825,22.13177 62.7697827,22.13177 C64.0314285,22.13177 64.8584897,23.1844657 64.8584897,24.7837686 C64.8584897,26.3989612 64.0314285,27.4429175 62.7697827,27.4429175 M63.1980113,20.7493622 C62.093674,20.7493622 61.1323444,21.2991474 60.6810757,22.1468653 L60.6516796,22.1468653 L60.6516796,20.8327834 L59.0809783,20.8327834 L59.0809783,31.3502059 L60.7033213,31.3502059 L60.7033213,27.4349726 L60.7406622,27.4349726 C61.2070262,28.31447 62.1016189,28.8173804 63.2274074,28.8173804 C65.2112421,28.8173804 66.5261185,27.2403232 66.5261185,24.7837686 C66.5261185,22.3351588 65.2032972,20.7493622 63.1980113,20.7493622"
                            id="Fill-12"></path>
                        <path
                            d="M75.7818158,22.6131499 L74.5877014,22.3199841 C73.1901983,21.9743821 72.6197565,21.5239078 72.6197565,20.7572276 C72.6197565,19.795898 73.5135546,19.1348846 74.8204862,19.1348846 C76.1274178,19.1348846 77.0212159,19.7879531 77.1197324,20.8700448 L78.7563761,20.8700448 C78.70394,18.9998218 77.1332387,17.7151358 74.8419374,17.7151358 C72.5283904,17.7151358 70.898897,18.9998218 70.898897,20.8700448 C70.898897,22.3803651 71.8236802,23.3115042 73.8130763,23.792169 L75.2185243,24.1306206 C76.6231778,24.4762225 77.2166598,24.9799275 77.2166598,25.820495 C77.2166598,26.790564 76.2322901,27.4960687 74.865772,27.4960687 C73.4388728,27.4960687 72.3941221,26.790564 72.2741545,25.7148282 L70.6136761,25.7148282 C70.7185484,27.6756228 72.3416859,28.9166119 74.7450099,28.9166119 C77.3143817,28.9166119 78.9287799,27.6462268 78.9287799,25.6179007 C78.9287799,24.0321042 78.0055857,23.1391005 75.7818158,22.6131499"
                            id="Fill-14"></path>
                        <path
                            d="M82.4317537,18.9619247 L80.8014658,18.9619247 L80.8014658,20.8321478 L79.6526372,20.8321478 L79.6526372,22.1176282 L80.8014658,22.1176282 L80.8014658,26.6470001 C80.8014658,28.1803605 81.4251383,28.7801984 83.0260302,28.7801984 C83.3859329,28.7801984 83.7466302,28.7508024 83.9269788,28.7055166 L83.9269788,27.4287756 C83.8221064,27.4430764 83.5583367,27.4661165 83.3930833,27.4661165 C82.7328644,27.4661165 82.4317537,27.150705 82.4317537,26.4738019 L82.4317537,22.1176282 L83.9349236,22.1176282 L83.9349236,20.8321478 L82.4317537,20.8321478 L82.4317537,18.9619247 Z"
                            id="Fill-16"></path>
                        <path
                            d="M88.5517686,27.4956714 C87.2376867,27.4956714 86.4559112,26.4970009 86.4559112,24.7840864 C86.4559112,23.0862671 87.2376867,22.0717068 88.5517686,22.0717068 C89.8658506,22.0717068 90.6484205,23.0783222 90.6484205,24.7840864 C90.6484205,26.4970009 89.8658506,27.4956714 88.5517686,27.4956714 M88.5517686,20.7353792 C86.2684122,20.7353792 84.8033777,22.2981357 84.8033777,24.7840864 C84.8033777,27.2779819 86.253317,28.833588 88.5517686,28.833588 C90.8510148,28.833588 92.3009541,27.2779819 92.3009541,24.7840864 C92.3009541,22.2981357 90.8438644,20.7353792 88.5517686,20.7353792"
                            id="Fill-18"></path>
                        <path
                            d="M95.2234755,22.1778503 L95.1853401,22.1778503 L95.1853401,20.8327834 L93.6384734,20.8327834 L93.6384734,28.7355483 L95.2608164,28.7355483 L95.2608164,24.0480733 C95.2608164,22.9365857 95.9067346,22.229492 96.9514853,22.229492 C97.2661023,22.229492 97.5521177,22.2747778 97.6800302,22.3272139 L97.6800302,20.8097432 C97.5521177,20.7803472 97.3574683,20.7493622 97.1246835,20.7493622 C96.19275,20.7493622 95.4713555,21.2832576 95.2234755,22.1778503"
                            id="Fill-20"></path>
                        <path
                            d="M99.6753849,24.0554621 C99.7580116,22.8613477 100.568389,22.0501762 101.687821,22.0501762 C102.814404,22.0501762 103.589029,22.8462524 103.62637,24.0554621 L99.6753849,24.0554621 Z M101.687821,20.7352998 C99.4648458,20.7352998 98.0307963,22.343342 98.0307963,24.8221423 C98.0307963,27.2929977 99.4576954,28.8335085 101.756147,28.8335085 C103.543743,28.8335085 104.941247,27.8483443 105.158936,26.4142948 L103.61922,26.4142948 C103.400736,27.0975538 102.695231,27.5257825 101.793488,27.5257825 C100.516747,27.5257825 99.6674401,26.6391347 99.6674401,25.2877118 L99.6674401,25.1891954 L105.249508,25.1891954 L105.249508,24.6338488 C105.249508,22.2376752 103.87425,20.7352998 101.687821,20.7352998 L101.687821,20.7352998 Z"
                            id="Fill-22"></path>
                        <path
                            d="M41.6250601,14.2089841 L41.6250601,10.4733049 L42.6070463,10.4733049 C43.6867545,10.4733049 44.3247278,11.1589474 44.3247278,12.3355831 C44.3247278,13.5304919 43.6962884,14.2089841 42.6070463,14.2089841 L41.6250601,14.2089841 Z M45.1486111,12.3252547 C45.1486111,10.685433 44.2421011,9.73681521 42.6976179,9.73681521 L40.816272,9.73681521 L40.816272,14.9454738 L42.6976179,14.9454738 C44.2492515,14.9454738 45.1486111,13.9889111 45.1486111,12.3252547 L45.1486111,12.3252547 Z"
                            id="Fill-24"></path>
                        <path
                            d="M47.9173198,14.3315735 C47.2428001,14.3315735 46.8638297,13.8374024 46.8638297,12.9785616 C46.8638297,12.1268713 47.2428001,11.6279333 47.9173198,11.6279333 C48.5886616,11.6279333 48.9716044,12.1268713 48.9716044,12.9785616 C48.9716044,13.8334299 48.5886616,14.3315735 47.9173198,14.3315735 M47.9173198,10.9383183 C46.7700802,10.9383183 46.062192,11.7113544 46.062192,12.9785616 C46.062192,14.2521247 46.7661078,15.0211884 47.9173198,15.0211884 C49.0653539,15.0211884 49.7692697,14.2521247 49.7692697,12.9785616 C49.7692697,11.7113544 49.0613815,10.9383183 47.9173198,10.9383183"
                            id="Fill-26"></path>
                        <polygon id="Fill-28"
                            points="52.2102524 14.9452354 53.0190404 12.0501238 53.0802159 12.0501238 53.8921819 14.9452354 54.697792 14.9452354 55.7759112 11.0149069 55.0012861 11.0149069 54.3005484 14.0140963 54.2385784 14.0140963 53.4305848 11.0149069 52.6869447 11.0149069 51.8781567 14.0140963 51.8201591 14.0140963 51.1162434 11.0149069 50.329701 11.0149069 51.4125871 14.9452354">
                        </polygon>
                        <path
                            d="M59.2504424,14.9452354 L60.025862,14.9452354 L60.025862,12.4004927 C60.025862,11.4653812 59.5420193,10.9386361 58.6656998,10.9386361 C58.0738068,10.9386361 57.682919,11.2024059 57.4922421,11.6393739 L57.4342445,11.6393739 L57.4342445,11.0149069 L56.6874265,11.0149069 L56.6874265,14.9452354 L57.4636405,14.9452354 L57.4636405,12.6451948 C57.4636405,12.0326451 57.8283102,11.6497022 58.40193,11.6497022 C58.9755498,11.6497022 59.2504424,11.9635247 59.2504424,12.5951421 L59.2504424,14.9452354 Z"
                            id="Fill-30"></path>
                        <polygon id="Fill-32" points="61.2616075 14.9453943 62.0370271 14.9453943 62.0370271 9.48011637 61.2616075 9.48011637"></polygon>
                        <path
                            d="M64.9709097,14.3315735 C64.29639,14.3315735 63.9174196,13.8374024 63.9174196,12.9785616 C63.9174196,12.1268713 64.29639,11.6279333 64.9709097,11.6279333 C65.6430459,11.6279333 66.0251943,12.1268713 66.0251943,12.9785616 C66.0251943,13.8334299 65.6430459,14.3315735 64.9709097,14.3315735 M64.9709097,10.9383183 C63.8236701,10.9383183 63.1157819,11.7113544 63.1157819,12.9785616 C63.1157819,14.2521247 63.8204921,15.0211884 64.9709097,15.0211884 C66.1189438,15.0211884 66.823654,14.2521247 66.823654,12.9785616 C66.823654,11.7113544 66.1149714,10.9383183 64.9709097,10.9383183"
                            id="Fill-34"></path>
                        <path
                            d="M70.1668564,13.4975207 C70.1668564,13.9845414 69.7338609,14.3571559 69.1491183,14.3571559 C68.7272455,14.3571559 68.4205734,14.1505892 68.4205734,13.7978369 C68.4205734,13.450646 68.6652755,13.2671194 69.2071158,13.230573 L70.1668564,13.1693975 L70.1668564,13.4975207 Z M70.9390981,14.9450765 L70.9390981,12.2597095 C70.9390981,11.4286759 70.382957,10.9384772 69.3977928,10.9384772 C68.506378,10.9384772 67.8707882,11.3714728 67.792134,12.046787 L68.5429245,12.046787 C68.6287291,11.7687164 68.9290453,11.609819 69.3620408,11.609819 C69.8919639,11.609819 70.1668564,11.8441927 70.1668564,12.2597095 L70.1668564,12.5989556 L69.1022435,12.6601311 C68.1663375,12.7189232 67.6395924,13.1257007 67.6395924,13.8335888 C67.6395924,14.5518053 68.1925556,15.00943 68.9504964,15.00943 C69.4669132,15.00943 69.8967308,14.7861791 70.1311045,14.3929079 L70.19228,14.3929079 L70.19228,14.9450765 L70.9390981,14.9450765 Z"
                            id="Fill-35"></path>
                        <path
                            d="M73.8103751,11.6462859 C74.4594712,11.6462859 74.8678376,12.1619082 74.8678376,12.981819 C74.8678376,13.8049078 74.4634436,14.3133797 73.8103751,14.3133797 C73.1533341,14.3133797 72.7600629,13.8120582 72.7600629,12.9786411 C72.7600629,12.1515798 73.1573065,11.6462859 73.8103751,11.6462859 M73.5903021,15.0093505 C74.1313479,15.0093505 74.5897671,14.7535256 74.8241408,14.3245025 L74.8861108,14.3245025 L74.8861108,14.9449971 L75.6289564,14.9449971 L75.6289564,9.47971912 L74.8527424,9.47971912 L74.8527424,11.6391355 L74.7955393,11.6391355 C74.5826167,11.2053455 74.1273755,10.9495206 73.5903021,10.9495206 C72.597193,10.9495206 71.9584252,11.736063 71.9584252,12.9786411 C71.9584252,14.2228081 72.5900426,15.0093505 73.5903021,15.0093505"
                            id="Fill-36"></path>
                        <path
                            d="M79.6401638,12.9784027 C79.6401638,12.1267124 80.0191342,11.6277744 80.6936539,11.6277744 C81.3649957,11.6277744 81.7479385,12.1267124 81.7479385,12.9784027 C81.7479385,13.833271 81.3649957,14.3314146 80.6936539,14.3314146 C80.0191342,14.3314146 79.6401638,13.8372435 79.6401638,12.9784027 M82.5456037,12.9784027 C82.5456037,11.7111955 81.8385101,10.9389539 80.6936539,10.9389539 C79.5464143,10.9389539 78.8385261,11.7111955 78.8385261,12.9784027 C78.8385261,14.2527603 79.5424419,15.0210295 80.6936539,15.0210295 C81.841688,15.0210295 82.5456037,14.2527603 82.5456037,12.9784027"
                            id="Fill-37"></path>
                        <path
                            d="M86.1489213,12.5951421 L86.1489213,14.9452354 L86.9251354,14.9452354 L86.9251354,12.4004927 C86.9251354,11.4653812 86.4412926,10.9386361 85.5641787,10.9386361 C84.9730802,10.9386361 84.5821924,11.2024059 84.3915155,11.6393739 L84.3335179,11.6393739 L84.3335179,11.0149069 L83.5859054,11.0149069 L83.5859054,14.9452354 L84.3621194,14.9452354 L84.3621194,12.6451948 C84.3621194,12.0326451 84.7275836,11.6497022 85.3012034,11.6497022 C85.8740287,11.6497022 86.1489213,11.9635247 86.1489213,12.5951421"
                            id="Fill-38"></path>
                        <path
                            d="M90.5310748,13.9055694 C90.5310748,14.6635102 90.8750878,14.9670044 91.7379009,14.9670044 C91.8888535,14.9670044 92.0334502,14.9479367 92.1597737,14.92728 L92.1597737,14.2813619 C92.0509289,14.2916902 91.9833975,14.2988406 91.8642244,14.2988406 C91.4773091,14.2988406 91.3080833,14.1192865 91.3080833,13.7069476 L91.3080833,11.6857719 L92.1597737,11.6857719 L92.1597737,11.0327034 L91.3080833,11.0327034 L91.3080833,10.0364164 L90.5310748,10.0364164 L90.5310748,11.0327034 L89.9074023,11.0327034 L89.9074023,11.6857719 L90.5310748,11.6857719 L90.5310748,13.9055694 Z"
                            id="Fill-39"></path>
                        <path
                            d="M93.9944831,12.649485 C93.9944831,12.054414 94.34803,11.653198 94.9844143,11.653198 C95.5326105,11.653198 95.8249818,11.9709929 95.8249818,12.5994323 L95.8249818,14.9455532 L96.6011959,14.9455532 L96.6011959,12.4071664 C96.6011959,11.4728493 96.0847792,10.9429263 95.2473896,10.9429263 C94.6554966,10.9429263 94.2407742,11.2059016 94.0493028,11.6460476 L93.9881272,11.6460476 L93.9881272,9.48027527 L93.2190636,9.48027527 L93.2190636,14.9455532 L93.9944831,14.9455532 L93.9944831,12.649485 Z"
                            id="Fill-40"></path>
                        <path
                            d="M99.4139192,11.5989345 C99.9883335,11.5989345 100.363331,12.0001505 100.381605,12.6166727 L98.396181,12.6166727 C98.4390833,12.0033285 98.8395049,11.5989345 99.4139192,11.5989345 M99.421864,15.0215856 C100.320429,15.0215856 100.948074,14.5885901 101.12445,13.8838799 L100.377632,13.8838799 C100.23383,14.1913464 99.9120627,14.3605722 99.4425207,14.3605722 C98.8220262,14.3605722 98.4216046,13.9236042 98.396181,13.2347838 L98.396181,13.191087 L101.171325,13.191087 L101.171325,12.9201668 C101.171325,11.6855336 100.511901,10.9387156 99.4178916,10.9387156 C98.3095819,10.9387156 97.6056661,11.7363808 97.6056661,12.9924652 C97.6056661,14.2485495 98.2952811,15.0215856 99.421864,15.0215856"
                            id="Fill-41"></path>
                    </g>
                    <rect id="Rectangle" stroke="#FFFFFF" stroke-width="1.37142857" x="0.685714286" y="0.685714286" width="118.628571" height="38.6285714" rx="5"></rect>
                </g>
            </g>
        </g>
    </g>
</svg>
