<?xml version="1.0" encoding="UTF-8"?>
<!-- <img src="images/f-google.svg" > -->
<svg width="120px" height="40px" viewBox="0 0 120 40" version="1.1" xmlns="http://www.w3.org/2000/svg" xmlns:xlink="http://www.w3.org/1999/xlink">
    <title>15DC0AA5-44F1-4128-A7A0-8FDE4AF13AA5</title>
    <g id="Page-1" stroke="none" stroke-width="1" fill="none" fill-rule="evenodd">
        <g id="Content-Page-Dev" transform="translate(-1334.000000, -7478.000000)">
            <g id="footer" transform="translate(0.000000, 7334.000000)">
                <g id="Group-29" transform="translate(1334.000000, 144.000000)">
                    <rect id="Rectangle" stroke="#FFFFFF" stroke-width="1.37142857" x="0.685714286" y="0.685714286" width="118.628571" height="38.6285714" rx="5"></rect>
                    <g id="Group-13" transform="translate(11.000000, 8.000000)" fill="#FFFFFF">
                        <path
                            d="M28.2151827,5.31988678 C28.9834519,5.31988678 29.6071244,5.0688288 30.0862002,4.56671284 C30.5080729,4.14404561 30.7186121,3.57757619 30.7186121,2.86651008 C30.7186121,2.74336455 30.7074892,2.6154521 30.6828601,2.48277273 L28.2151827,2.48277273 L28.2151827,3.09373344 L30.064749,3.09373344 C30.0266136,3.53467388 29.8844004,3.87868687 29.6381094,4.12577241 C29.25755,4.50474284 28.7840355,4.69383081 28.2151827,4.69383081 C27.6789037,4.69383081 27.2157177,4.50633181 26.8248299,4.12895036 C26.4339422,3.7515689 26.2384983,3.26216474 26.2384983,2.65994339 C26.2384983,2.05851652 26.4339422,1.56831788 26.8248299,1.19173091 C27.2157177,0.814349455 27.6789037,0.626055971 28.2151827,0.626055971 C28.8078702,0.626055971 29.2726452,0.827855738 29.6095078,1.23066079 L30.0568042,0.782569964 C29.8581823,0.545812756 29.5920291,0.355930298 29.2607279,0.213717076 C28.9286322,0.0715038545 28.5798523,5.84865489e-13 28.2151827,5.84865489e-13 C27.4802819,5.84865489e-13 26.8550204,0.255030415 26.3417817,0.765091244 C25.8269539,1.27435759 25.5703345,1.90597497 25.5703345,2.65994339 C25.5703345,3.41391181 25.8269539,4.04552919 26.3417817,4.55559002 C26.8550204,5.06565085 27.4802819,5.31988678 28.2151827,5.31988678"
                            id="Fill-4"></path>
                        <polygon id="Fill-6"
                            points="34.6308263 4.58045747 32.3117179 4.58045747 32.3117179 2.96605934 34.4028084 2.96605934 34.4028084 2.35430414 32.3117179 2.35430414 32.3117179 0.739905997 34.6308263 0.739905997 34.6308263 0.113850026 31.6578549 0.113850026 31.6578549 5.20651344 34.6308263 5.20651344">
                        </polygon>
                        <polygon id="Fill-8"
                            points="37.3898422 5.20659289 37.3898422 0.739985446 38.8127689 0.739985446 38.8127689 0.113929475 35.3130525 0.113929475 35.3130525 0.739985446 36.7351847 0.739985446 36.7351847 5.20659289">
                        </polygon>
                        <polygon id="Fill-10" points="41.3447999 5.20667234 41.9986629 5.20667234 41.9986629 0.114008924 41.3447999 0.114008924"></polygon>
                        <polygon id="Fill-12"
                            points="44.9010044 5.20659289 44.9010044 0.739985446 46.3231366 0.739985446 46.3231366 0.113929475 42.8242146 0.113929475 42.8242146 0.739985446 44.2463468 0.739985446 44.2463468 5.20659289">
                        </polygon>
                        <path
                            d="M49.6974035,1.19848405 C50.0747849,0.81713016 50.5355875,0.626453215 51.0806058,0.626453215 C51.6264186,0.626453215 52.0880157,0.81713016 52.4638082,1.19848405 C52.8411896,1.57983794 53.0302776,2.06765313 53.0302776,2.66034063 C53.0302776,3.25302814 52.8411896,3.74004884 52.4638082,4.12219721 C52.0880157,4.50355111 51.6264186,4.69422805 51.0806058,4.69422805 C50.5355875,4.69422805 50.0747849,4.50355111 49.6974035,4.12219721 C49.3208165,3.74004884 49.1317285,3.25302814 49.1317285,2.66034063 C49.1317285,2.06765313 49.3208165,1.57983794 49.6974035,1.19848405 M51.0806058,5.31948953 C51.8250404,5.31948953 52.4471239,5.06287015 52.9484454,4.54804239 C53.4481779,4.03400913 53.6984414,3.40477521 53.6984414,2.66034063 C53.6984414,1.92067298 53.4473834,1.29223355 52.9452674,0.775022335 C52.4415625,0.258605607 51.821068,0.000397243637 51.0806058,0.000397243637 C50.3369657,0.000397243637 49.7140877,0.257016633 49.2143552,0.771844385 C48.7138282,1.28587765 48.4635647,1.91590606 48.4635647,2.66034063 C48.4635647,3.40477521 48.7138282,4.03400913 49.2143552,4.54804239 C49.7140877,5.06287015 50.3369657,5.31948953 51.0806058,5.31948953"
                            id="Fill-13"></path>
                        <polygon id="Fill-14"
                            points="55.2704139 2.03444356 55.2426068 1.05325178 55.2704139 1.05325178 57.8596479 5.20683124 58.542907 5.20683124 58.542907 0.114167821 57.8882495 0.114167821 57.8882495 3.09349509 57.9160565 4.07548136 57.8882495 4.07548136 55.4134216 0.114167821 54.6165509 0.114167821 54.6165509 5.20683124 55.2704139 5.20683124">
                        </polygon>
                        <path
                            d="M30.9950936,13.7419286 L30.9950936,15.2737 L34.6592689,15.2737 C34.5504242,16.1349242 34.2628198,16.7633637 33.8258518,17.2011261 C33.2919563,17.7342271 32.4577447,18.3229422 30.9950936,18.3229422 C28.7387498,18.3229422 26.9741935,16.5043608 26.9741935,14.248017 C26.9741935,11.9916731 28.7387498,10.1730917 30.9950936,10.1730917 C32.2114536,10.1730917 33.1004849,10.6513731 33.7575259,11.2671007 L34.8372341,10.186598 C33.9211903,9.31186753 32.7040357,8.64211476 30.9950936,8.64211476 C27.9045381,8.64211476 25.3065648,11.1574615 25.3065648,14.248017 C25.3065648,17.337778 27.9045381,19.8539192 30.9950936,19.8539192 C32.6635169,19.8539192 33.9211903,19.3073119 34.90556,18.2816288 C35.9169423,17.2694521 36.2315592,15.8473198 36.2315592,14.6992857 C36.2315592,14.3433554 36.2045467,14.0152322 36.1497271,13.7419286 L30.9950936,13.7419286 Z"
                            id="Fill-15"></path>
                        <path
                            d="M64.5273029,16.1346859 C64.4859896,14.7403607 65.6070111,14.0292946 66.4142102,14.0292946 C67.0434441,14.0292946 67.5765451,14.3439116 67.7545102,14.7943859 L64.5273029,16.1346859 Z M69.449946,14.9310377 C69.1488354,14.1246331 68.2327915,12.634175 66.360185,12.634175 C64.5002903,12.634175 62.9550126,14.0976205 62.9550126,16.2443251 C62.9550126,18.2678842 64.4859896,19.8536808 66.5373557,19.8536808 C68.1914782,19.8536808 69.1488354,18.8422985 69.5452845,18.2543779 L68.3154182,17.4336726 C67.9046683,18.0350994 67.3445548,18.4323431 66.5373557,18.4323431 C65.7309511,18.4323431 65.1565368,18.0629065 64.7871002,17.3383341 L69.6136104,15.3417876 L69.449946,14.9310377 Z"
                            id="Fill-16"></path>
                        <path
                            d="M76.9209866,14.1383777 L74.6686151,14.1383777 L74.6686151,10.501215 L76.9209866,10.501215 C78.1047726,10.501215 78.7769088,11.4816123 78.7769088,12.3197963 C78.7769088,13.1420907 78.1047726,14.1383777 76.9209866,14.1383777 M76.8796732,9.02426314 L73.085202,9.02426314 L73.085202,19.6346407 L74.6686151,19.6346407 L74.6686151,15.6153296 L76.8796732,15.6153296 C78.6346956,15.6153296 80.360322,14.3441499 80.360322,12.3197963 C80.360322,10.2954428 78.6346956,9.02426314 76.8796732,9.02426314"
                            id="Fill-17"></path>
                        <polygon id="Fill-18"
                            points="93.6835557 17.44702 93.6287361 17.44702 91.7458013 12.8469386 90.0384481 12.8469386 92.8644394 19.2759297 91.2532192 22.8527114 92.9057527 22.8527114 97.259543 12.8469386 95.4989592 12.8469386">
                        </polygon>
                        <polygon id="Fill-19" points="81.2344169 19.6353557 82.81783 19.6353557 82.81783 9.02497817 81.2344169 9.02497817"></polygon>
                        <path
                            d="M56.1866961,18.4320253 C55.0926871,18.4320253 54.1766433,17.5159815 54.1766433,16.2575136 C54.1766433,14.986334 55.0926871,14.0567839 56.1866961,14.0567839 C57.2664043,14.0567839 58.1149167,14.986334 58.1149167,16.2575136 C58.1149167,17.5159815 57.2664043,18.4320253 56.1866961,18.4320253 L56.1866961,18.4320253 Z M58.0052774,13.4410562 L57.9504578,13.4410562 C57.5945275,13.0175945 56.9112685,12.6346516 56.0492498,12.6346516 C54.2449692,12.6346516 52.5908467,14.2204482 52.5908467,16.2575136 C52.5908467,18.2818672 54.2449692,19.8541575 56.0492498,19.8541575 C56.9112685,19.8541575 57.5945275,19.4712146 57.9504578,19.0334521 L58.0052774,19.0334521 L58.0052774,19.5530468 C58.0052774,20.9338657 57.2664043,21.6727389 56.0770568,21.6727389 C55.1061934,21.6727389 54.5047665,20.975179 54.2584755,20.3872585 L52.8776566,20.9616728 C53.2741057,21.9190299 54.3268014,23.0948711 56.0770568,23.0948711 C57.9369515,23.0948711 59.5092418,22.0008621 59.5092418,19.3345628 L59.5092418,12.8531356 L58.0052774,12.8531356 L58.0052774,13.4410562 Z"
                            id="Fill-20"></path>
                        <path
                            d="M86.5168833,18.4297213 C85.9980831,18.4297213 85.2750997,18.1707184 85.2750997,17.5287727 C85.2750997,16.7096563 86.1752538,16.3958338 86.9538513,16.3958338 C87.6498221,16.3958338 87.9779454,16.5459919 88.4006126,16.7509697 C88.2782616,17.7337504 87.4313381,18.4297213 86.5168833,18.4297213 M86.7075602,12.6148689 C85.5619096,12.6148689 84.3741511,13.1193683 83.8823635,14.2395954 L85.288606,14.825927 C85.5889222,14.2395954 86.1482412,14.048124 86.7353673,14.048124 C87.5544837,14.048124 88.3871063,14.5399116 88.4006126,15.4130531 L88.4006126,15.5226923 C88.1145972,15.3582335 87.4996641,15.1127369 86.7488736,15.1127369 C85.2337863,15.1127369 83.6908921,15.9453596 83.6908921,17.5017601 C83.6908921,18.9215089 84.9334702,19.8359637 86.3262063,19.8359637 C87.3908193,19.8359637 87.9779454,19.3576824 88.3465875,18.7983634 L88.4006126,18.7983634 L88.4006126,19.6174797 L89.9300006,19.6174797 L89.9300006,15.5497049 C89.9300006,13.6659756 88.5229637,12.6148689 86.7075602,12.6148689"
                            id="Fill-21"></path>
                        <polygon id="Fill-22" points="60.6031714 19.6353557 62.188968 19.6353557 62.188968 9.02497817 60.6031714 9.02497817"></polygon>
                        <path
                            d="M40.3978505,18.4320253 C39.3038415,18.4320253 38.3607851,17.5294877 38.3607851,16.2440073 C38.3607851,14.9450206 39.3038415,14.0567839 40.3978505,14.0567839 C41.4918595,14.0567839 42.4349159,14.9450206 42.4349159,16.2440073 C42.4349159,17.5294877 41.4918595,18.4320253 40.3978505,18.4320253 M40.3978505,12.6346516 C38.401304,12.6346516 36.774194,14.1521223 36.774194,16.2440073 C36.774194,18.322386 38.401304,19.8541575 40.3978505,19.8541575 C42.394397,19.8541575 44.0215069,18.322386 44.0215069,16.2440073 C44.0215069,14.1521223 42.394397,12.6346516 40.3978505,12.6346516"
                            id="Fill-23"></path>
                        <path
                            d="M48.3023633,18.4320253 C47.2083543,18.4320253 46.2652979,17.5294877 46.2652979,16.2440073 C46.2652979,14.9450206 47.2083543,14.0567839 48.3023633,14.0567839 C49.3963722,14.0567839 50.3394286,14.9450206 50.3394286,16.2440073 C50.3394286,17.5294877 49.3963722,18.4320253 48.3023633,18.4320253 M48.3023633,12.6346516 C46.3058168,12.6346516 44.6787068,14.1521223 44.6787068,16.2440073 C44.6787068,18.322386 46.3058168,19.8541575 48.3023633,19.8541575 C50.2989098,19.8541575 51.9268142,18.322386 51.9268142,16.2440073 C51.9268142,14.1521223 50.2989098,12.6346516 48.3023633,12.6346516"
                            id="Fill-24"></path>
                        <path
                            d="M11.0243054,11.3592612 C9.66017075,9.98559274 8.30318649,8.60477386 6.94461325,7.22474946 C4.84796134,5.0939346 2.75051494,2.96391422 0.657835462,0.828332431 C0.529128524,0.697242031 0.452857745,0.727432547 0.347985425,0.839455252 C0.07865424,1.12785413 0.00397243636,1.47583956 0.00397243636,1.85798794 C0.00715038545,4.96761112 0.00556141091,8.07723431 0.00556141091,11.1868575 L-1.26387789e-12,11.1868575 C-1.26387789e-12,12.4890221 -1.26387789e-12,13.7919813 0.000794487271,15.0933514 C0.00158897454,16.9357674 0.00476692364,18.7773889 0.00476692364,20.6198049 C0.00397243636,21.0567729 0.140624247,21.4230315 0.496554545,21.6971296 C0.691203927,21.8472877 0.834211636,21.8687389 1.03760038,21.6653501 C4.36014615,18.3372429 7.69302026,15.0178751 11.0274833,11.7016852 C11.1681076,11.56265 11.1561903,11.4919406 11.0243054,11.3592612"
                            id="Fill-25"></path>
                        <path
                            d="M11.4851875,10.9767156 C11.6218393,11.1165454 11.6838093,11.0569588 11.7855037,10.9552645 C12.730149,10.0098246 13.6747944,9.06517923 14.6273846,8.12768425 C14.7791317,7.97911513 14.7823096,7.91793961 14.5868658,7.80830037 C10.325236,5.42722201 6.06678426,3.03899327 1.80753799,0.6523535 C1.63513426,0.555426052 1.45558013,0.482333223 1.20134421,0.48389678 C1.25854729,0.555426052 1.28158742,0.589589005 1.31018896,0.618190547 C4.70264962,4.07023775 8.09590476,7.52069597 11.4851875,10.9767156"
                            id="Fill-26"></path>
                        <path
                            d="M11.8754396,12.2169102 C11.7038304,12.0381506 11.6148478,12.0119325 11.4233764,12.2065819 C8.33917676,15.3384507 5.24544332,18.4615802 2.15409334,21.5862986 C2.1882563,21.564053 2.24943182,21.5052609 2.31457977,21.469509 C6.28066024,19.2926139 10.2451517,17.1141298 14.2144101,14.9412071 C14.4050871,14.8371293 14.3931698,14.7791317 14.2525455,14.6385074 C13.4540858,13.8376643 12.6588041,13.0328487 11.8754396,12.2169102"
                            id="Fill-27"></path>
                        <path
                            d="M19.145316,10.3653577 C17.956763,9.69957732 16.7658266,9.03776942 15.581246,8.36563319 C15.4342659,8.28221202 15.3500503,8.29571831 15.2324661,8.41409691 C14.2345901,9.41673985 13.2335362,10.4146159 12.2261263,11.4069305 C12.0966249,11.5340484 12.0998028,11.6031688 12.2261263,11.7294923 C13.0905284,12.5978669 13.9509582,13.4710084 14.8026485,14.3513003 C14.9369169,14.4895411 15.0322553,14.4935135 15.1935363,14.4037365 C16.3908286,13.7355727 17.5944768,13.0785317 18.7949471,12.4151348 C18.9967468,12.3031121 19.2009301,12.1910894 19.3860456,12.0544376 C19.6363091,11.8701165 19.8015624,11.6238255 19.8150687,11.2734566 C19.7983845,10.8380776 19.5131636,10.5719243 19.145316,10.3653577"
                            id="Fill-28"></path>
                    </g>
                </g>
            </g>
        </g>
    </g>
</svg>
